<?xml version="1.0" encoding="utf-8"?>
<!-- Generator: Adobe Illustrator 26.1.0, SVG Export Plug-In . SVG Version: 6.00 Build 0)  -->
<svg version="1.1" id="Layer_1" xmlns="http://www.w3.org/2000/svg" xmlns:xlink="http://www.w3.org/1999/xlink" x="0px" y="0px"
	 viewBox="0 0 502 502" style="enable-background:new 0 0 502 502;" xml:space="preserve">
<path d="M403.5,189.8c-7.3,0-14.7,1-22,3.1l-28.3-81.7c8.4-4.2,18.9-3.1,26.2,3.1c2.1,2.1,5.2,3.1,7.3,3.1c2.1,0,5.2-1,7.3-3.1
	c4.2-4.2,4.2-10.5,0-14.7c-8.4-8.4-32.5-23.1-59.7-1c-3.1,2.1-3.1,10.5-3.1,11.5l11.5,32.5H208.6l-3.1-8.4h7.3
	c6.3,0,10.5-4.2,10.5-10.5c0-6.3-4.2-10.5-10.5-10.5h-53.4c-6.3,0-10.5,4.2-10.5,10.5c0,6.3,4.2,10.5,10.5,10.5h24.1l7.3,21
	L152,204.4c-15.7-9.4-33.5-15.7-52.4-15.7C45.1,188.7,0,233.8,0,288.3c0,54.5,45.1,99.6,99.6,99.6c51.4,0,94.3-38.8,99.6-89.1h51.4
	c1,0,2.1,0,3.1-1c1,0,2.1-1,3.1-2.1l1-1L350,168.8l10.5,29.3c-33.5,15.7-57.6,50.3-57.6,90.1c0,54.5,45.1,99.6,99.6,99.6
	c54.5,0,99.6-45.1,99.6-99.6C502,233.8,458,189.8,403.5,189.8L403.5,189.8z M99.6,367.9c-43,0-78.6-35.6-78.6-78.6
	s35.6-78.6,78.6-78.6c14.7,0,28.3,4.2,39.8,10.5L91.2,283c-2.1,3.1-3.1,7.3-1,11.5c2.1,3.1,5.2,6.3,9.4,6.3h78.6
	C172.9,338.6,139.4,367.9,99.6,367.9z M121.6,278.8l34.6-45.1c11.5,11.5,19.9,27.2,22,45.1H121.6z M199.1,278.8
	c-2.1-24.1-13.6-45.1-30.4-60.8l30.4-38.8l35.6,99.6L199.1,278.8z M253.6,267.3l-36.7-103.8h113.2L253.6,267.3z M403.5,367.9
	c-43,0-78.6-35.6-78.6-78.6c0-30.4,17.8-57.6,43-70.2l25.2,73.4c1,4.2,5.2,7.3,9.4,7.3c1,0,2.1,0,3.1-1c5.2-2.1,8.4-7.3,6.3-13.6
	l-25.2-73.4c5.2-1,10.5-1,15.7-1c43,0,78.6,35.6,78.6,78.6C482.1,332.3,446.5,367.9,403.5,367.9L403.5,367.9z"/>
</svg>
