<?xml version="1.0" encoding="utf-8"?>
<!-- Generator: Adobe Illustrator 26.1.0, SVG Export Plug-In . SVG Version: 6.00 Build 0)  -->
<svg version="1.1" id="Layer_1" xmlns="http://www.w3.org/2000/svg" xmlns:xlink="http://www.w3.org/1999/xlink" x="0px" y="0px"
	 viewBox="0 0 502 502" style="enable-background:new 0 0 502 502;" xml:space="preserve">
<path d="M489.3,150.9c-1.5-25.7-12.8-49.8-31.6-67.4C439,65.8,414.3,56,388.5,55.9c-36.7-0.2-55.2-3.5-79.5,29H195.7l-7.4-8.8h0
	c-10.7-12.8-26.5-20.2-43.1-20.2h-29C90.4,56,65.7,65.8,47,83.5c-18.7,17.6-30,41.8-31.6,67.4L3.3,355.2
	c-3,71.2,93.5,94.4,122.6,28.4l19.3-46.2v0c1.8-4.3-0.2-9.2-4.5-11c-4.3-1.8-9.2,0.2-11,4.5l-19.3,46.2
	c-20.9,48.3-92.7,31.7-90.4-21l12.1-204.3h0c1.3-21.4,10.7-41.5,26.3-56.2C74.1,81,94.7,72.8,116.2,72.7h29h0
	c11.7,0,22.8,5.2,30.2,14.1l9.9,11.8h0c1.6,1.9,4,3,6.4,3H313c2.5,0,4.9-1.1,6.4-3l9.9-11.8c7.5-9,18.6-14.2,30.2-14.1h29
	c21.4,0,42.1,8.2,57.7,22.9c15.6,14.7,25,34.8,26.3,56.2l12.1,204.3l0,0c0.9,14.9-5.3,29.4-16.8,39c-11.5,9.6-26.8,13.1-41.3,9.6
	c-14.5-3.6-26.5-13.8-32.2-27.6L375,331c-1.8-4.3-6.7-6.3-11-4.5c-4.3,1.8-6.3,6.7-4.5,11l19.3,46.2h0c7.8,18.7,24.1,32.6,43.8,37.4
	c19.7,4.8,40.5,0,56.1-13c15.6-13,24-32.6,22.8-52.9L489.3,150.9z"/>
<path d="M175.3,334.4c10.7,0,21-3.8,29.2-10.6c8.2-6.8,13.8-16.3,15.8-26.8h64.1c11.4,54,89.3,47.2,90.7-8.4
	c-1.5-55.6-79.4-62.4-90.7-8.4l-64.1,0c-11.4-54-89.3-47.2-90.7,8.4v0c0,12.1,4.8,23.8,13.4,32.3
	C151.6,329.6,163.2,334.4,175.3,334.4L175.3,334.4z M329.3,259.7c38.3,1.2,38.3,56.7,0,57.9C291.1,316.4,291.1,260.9,329.3,259.7
	L329.3,259.7z M175.3,259.7c38.3,1.2,38.3,56.7,0,57.9C137.1,316.4,137.1,260.9,175.3,259.7z"/>
<path d="M145.2,236.2c6.5,0,12.8-2.6,17.5-7.2c4.6-4.6,7.2-10.9,7.2-17.4v-12.5h12.5c8.7-0.1,16.7-4.9,21.1-12.4
	c4.3-7.6,4.3-16.9,0-24.5c-4.3-7.6-12.3-12.3-21.1-12.4h-12.5v-12.4c-0.1-8.7-4.9-16.7-12.4-21.1s-16.9-4.3-24.5,0
	c-7.6,4.3-12.3,12.3-12.4,21.1v12.5H108c-6.6-0.1-13,2.5-17.7,7.1c-4.7,4.6-7.4,11-7.4,17.6c0,6.6,2.7,12.9,7.4,17.6
	c4.7,4.6,11.1,7.2,17.7,7.1h12.5v12.5c0,6.5,2.6,12.8,7.2,17.4C132.3,233.6,138.6,236.2,145.2,236.2L145.2,236.2z M108,182.3
	c-4.3-0.1-7.7-3.6-7.7-7.9s3.4-7.8,7.7-7.9h20.9h0c4.6,0,8.4-3.8,8.4-8.4v-20.8c0.1-4.3,3.6-7.7,7.9-7.7c4.3,0,7.8,3.4,7.9,7.7v20.9
	c0,4.6,3.8,8.4,8.4,8.4h20.9c4.3,0.1,7.7,3.6,7.7,7.9c0,4.3-3.4,7.8-7.7,7.9h-20.9c-4.6,0-8.4,3.8-8.4,8.4v20.9
	c0.1,2.1-0.7,4.2-2.2,5.7c-1.5,1.5-3.5,2.4-5.7,2.4s-4.2-0.9-5.7-2.4c-1.5-1.5-2.3-3.6-2.2-5.7v-20.9c0-4.6-3.8-8.4-8.4-8.4
	L108,182.3z"/>
<path d="M335.1,150.7c-8.5,0-16.3,4.5-20.6,11.9c-4.2,7.3-4.2,16.4,0,23.7c4.2,7.3,12.1,11.9,20.6,11.9c8.5,0,16.3-4.5,20.6-11.9
	c4.2-7.3,4.2-16.4,0-23.7C351.4,155.2,343.6,150.7,335.1,150.7z M335.1,181.3c-3.8,0-6.9-3.1-6.9-6.9c0-3.8,3.1-6.9,6.9-6.9
	s6.9,3.1,6.9,6.9C342,178.2,338.9,181.3,335.1,181.3z"/>
<path d="M377.7,108c-8.5,0-16.3,4.5-20.6,11.9c-4.2,7.3-4.2,16.4,0,23.7c4.2,7.3,12.1,11.9,20.6,11.9c8.5,0,16.3-4.5,20.6-11.9
	c4.2-7.3,4.2-16.4,0-23.7C394,112.6,386.2,108,377.7,108z M377.7,138.7c-3.8,0-6.9-3.1-6.9-6.9c0-3.8,3.1-6.9,6.9-6.9
	c3.8,0,6.9,3.1,6.9,6.9C384.7,135.6,381.6,138.7,377.7,138.7z"/>
<path d="M420.3,198.2c8.5,0,16.3-4.5,20.6-11.9c4.2-7.3,4.2-16.4,0-23.7s-12.1-11.9-20.6-11.9s-16.3,4.5-20.6,11.9s-4.2,16.4,0,23.7
	C404,193.6,411.9,198.2,420.3,198.2z M420.3,167.5L420.3,167.5c3.8,0,6.9,3.1,6.9,6.9c0,3.8-3.1,6.9-6.9,6.9s-6.9-3.1-6.9-6.9
	C413.4,170.6,416.5,167.5,420.3,167.5L420.3,167.5z"/>
<path d="M377.7,193.3c-8.5,0-16.3,4.5-20.6,11.9c-4.2,7.3-4.2,16.4,0,23.7c4.2,7.3,12.1,11.9,20.6,11.9c8.5,0,16.3-4.5,20.6-11.9
	c4.2-7.3,4.2-16.4,0-23.7C394,197.8,386.2,193.3,377.7,193.3L377.7,193.3z M377.7,224c-3.8,0-6.9-3.1-6.9-6.9c0-3.8,3.1-6.9,6.9-6.9
	c3.8,0,6.9,3.1,6.9,6.9C384.7,220.9,381.6,224,377.7,224z"/>
</svg>
