<?xml version="1.0" encoding="utf-8"?>
<!-- Generator: Adobe Illustrator 26.1.0, SVG Export Plug-In . SVG Version: 6.00 Build 0)  -->
<svg version="1.1" id="a" xmlns="http://www.w3.org/2000/svg" xmlns:xlink="http://www.w3.org/1999/xlink" x="0px" y="0px"
	 viewBox="0 0 580 296" style="enable-background:new 0 0 580 296;" xml:space="preserve">
<style type="text/css">
	.st0{fill:#333333;}
	.st1{fill:#FFFFFF;stroke:#333333;stroke-width:3;stroke-miterlimit:10;}
	.st2{fill:#22AAE6;stroke:#333333;stroke-width:3;stroke-miterlimit:10;}
	.st3{fill:none;stroke:#333333;stroke-width:3;stroke-miterlimit:10;}
	.st4{fill:#333333;stroke:#333333;stroke-width:3;stroke-miterlimit:10;}
	.st5{fill:#333333;stroke:#333333;stroke-miterlimit:10;}
	.st6{font-family:'Nunito-Medium';}
	.st7{font-size:60.33px;}
</style>
<path class="st0" d="M127.2,132.9c20.6-3.9,27-9.7,29.5-12.2c8.7-8.9,10.5-20.1,11.5-26.2c1.1-6.5-0.7-16.6-4.2-36.9
	c-2.6-15.3-4.8-23.8-11.5-32c-2-2.4-3.8-4.1-5.2-5.3c-3.9-4.6-12.1-12.9-25.2-17.3c-7.7-2.6-14-2.8-18.7-2.9
	C97-0.1,78.8-0.2,61.7,11.4c-7.1,4.9-11.2,9.9-17.2,17.3c-4.9,6.1-13,16.1-18.1,29.9C23,68.4,14.6,91,25.2,108.9
	c7.5,12.8,20.9,16.9,38.8,22.3C91.2,139.5,113.3,135.5,127.2,132.9z"/>
<path class="st1" d="M141.8,37.3c5.2,5.5,7.3,10.9,8.2,13.9c1.9,6.5,1.4,12.1,0.9,16.4c-0.6,5.6-1.4,5.8-2.3,12.2
	c-1.2,8.6,0.1,10.8-0.6,16.7c-0.9,7.5-4,12.5-8.2,19.3c-6.1,9.9-10.5,17.1-18.8,21.4c-15.1,7.9-35.3,2-47.7-8.8
	c-8.6-7.5-12.3-16.4-13.9-21.2c-2.3-0.8-11.1-3.9-14.9-12.6c-0.9-2.1-1.4-4.2-1.6-6c0.7-4.4,3.4-7.8,6.8-8.4c4-0.8,7.5,2.7,8.9,4.2
	c1.7,1.7,2.7,3.5,3.2,4.8c0.2-1.4,0.5-3.4,1.5-5.7c0,0,1.9-4.5,6-7.9c7-5.9,16.3-3,34.7-6.9c6.1-1.3,9.2-2,12.9-4
	c1.3-0.8,5.7-3.3,15.3-14.8C134.7,46.7,138,42.6,141.8,37.3L141.8,37.3z"/>
<path class="st2" d="M1.5,244.4c-0.1-15.6,0.9-28.6,1.9-38.2c2.3-20.5,4.9-26.3,9-30.9c2.4-2.6,4.5-4,17.4-11
	c9.4-5.1,17.3-9.3,23.3-12.5c9.5,16,18.2,26.2,23.7,32.2c2.1,2.3,5.6,5.8,11.2,7.8c1.4,0.5,12.7,4.5,19.5-2.2
	c4.1-4.1,4.2-9.9,4.1-11.8c-2.4-2.8-5.8-7.6-7.8-14.3c-1.1-3.8-1.5-7.1-1.6-9.8c8.9,3.9,22,10.9,34.7,23.2
	c9.2,8.9,15.4,17.9,19.6,25l17,31.5l-33.9,19l-6.9,41.6H41.1l-2.4-50.5L1.5,244.4L1.5,244.4z"/>
<path class="st3" d="M121.3,108.7c1.3,0.2,3.9,0.5,5.8-1c2.5-2,2.3-5.8,2.3-8.9c-0.1-2.1-0.4-3.7-0.7-4.9"/>
<path class="st1" d="M98.8,113.2c1.7,7.6,7.7,12,12.5,11.2c3.8-0.6,6-4.2,6.6-5.2c-3.4-0.4-7.6-1.3-12.2-2.9
	C103,115.4,100.8,114.3,98.8,113.2z"/>
<path class="st3" d="M136.9,64.8c0.9-0.2,3.8-0.7,6.8,0.9c1.5,0.8,2.4,1.9,3,2.6"/>
<circle class="st0" cx="106.1" cy="80.5" r="3.6"/>
<circle class="st0" cx="139" cy="86.8" r="3.6"/>
<polygon class="st1" points="16,294 11.8,244.1 38.7,243.6 41.1,294 "/>
<polyline class="st3" points="129.7,202.7 141,226.7 139.6,252.4 "/>
<path class="st1" d="M55.5,155.2c1.2-1.2,2.8-3,4.3-5.5c4-6.6,4.1-13.2,4.2-20.3c0-3.7-0.2-8.7-1.3-14.7c2,3.9,5.4,9,10.7,13.7
	c12.2,10.8,26.4,12.2,31.5,12.4c-1.3,3.3-3.1,8.9-2.4,15.8c0.6,6.3,2.9,10.9,4.4,13.8c1.7,3.2,3.4,5.7,4.8,7.4
	c0.1,1.4,0.3,7.5-4.1,11.8c-5.3,5.2-13.1,3.6-16,3.1c-6.4-1.3-10.6-5-13.6-7.6c-1.5-1.3-3.1-3.2-6.3-7c-2.7-3.1-5-6.3-9.8-12.7
	c-1.1-1.5-2.4-3.2-3.9-5.7C56.9,157.9,56,156.3,55.5,155.2L55.5,155.2z"/>
<g>
	<path class="st1" d="M224.5,175.9c-0.6,0.8-1.1,1.6-1.7,2.5c-0.1,3.2-0.3,6.4-0.4,9.6c-1.9,3.1-4.2,7.7-5.5,13.8
		c-1.8,8.2-0.9,15.1,0,19.1l-41.6,34c-3.3-5.7-6.6-11.3-9.9-17L147.3,248c2.3,6.6,6.3,14.5,13.4,21.6c4.3,4.3,10.1,10.1,17.4,9.4
		c2.4-0.2,4.4-1.1,5.6-1.8c14.9-14.4,29.7-28.7,44.6-43.1c1.9,0.2,3.6,0.2,5.2,0c13.2-1.2,21.7-12,24.5-16
		c0.5-9.1,1.1-18.3,1.6-27.4c4.6-1.9,8.4-3.8,11.1-5.2c4.4-2.3,5.9-3.4,6-5c0.1-2-2.2-3.6-3.4-4.4l-41.9,17.3
		c0.2-0.9,2.3-10-3.3-15.3c-0.4-0.4-0.9-0.8-0.9-0.8c-0.5-0.4-0.9-0.6-1.6-1C225.4,176.4,225,176.2,224.5,175.9z"/>
	<path class="st1" d="M257.2,223.9c3,1.1,7.6-1.7,7.4-4.9c-0.2-2.4-2.9-4.8-5.9-4.6c-2.5,0.2-4.1,2.3-4.4,4.2
		C254,220.7,255.1,223.1,257.2,223.9L257.2,223.9z"/>
	<path class="st1" d="M265.2,212.5c2-0.4,4.5-1,5.2-2.9c0.5-1.5-0.3-3.2-1.3-4.2c-3.1-3.3-9.6-2.2-12.6-1.2c-1.6,0.5-3.8,1.3-4.2,3
		c-0.4,1.6,0.8,3.1,1,3.3C256.4,214.3,264.7,212.6,265.2,212.5L265.2,212.5z"/>
	<path class="st1" d="M266,190.8c2.4,1.3,3.6,4.3,2.8,6.9c-1,2.8-4.3,4.7-8,4.4c-6.1,0.1-10.7-1.7-11.1-3.9c-0.6-3,6.8-6.1,7.5-6.4
		C260,190.6,263.3,189.3,266,190.8L266,190.8z"/>
</g>
<path class="st2" d="M573.1,243.8c5.8-18.1,5.8-33,5.1-42.1c-1-13.4-1.9-25.1-10.5-32.2c-2.8-2.3-9.4-4.6-22.6-9.2
	c-6.9-2.4-12.6-4.3-16.6-5.6c-4.7,6.9-8.8,12.6-12,17c-4.7,6.4-7.2,9-10.3,12.3c-2.1,2.3-5.6,5.8-11.2,7.8
	c-1.4,0.5-12.7,4.5-19.5-2.2c-4.1-4.1-4.1-9.9-4.1-11.8c6.3-3.1,9.3-9.4,7.8-14.3c-1.2-3.9-5-5.7-6-6.2
	c-22.8,0.2-33.2,7.2-38.5,13.7c-6.4,7.9-5.6,15.7-12.5,34.8c-4.4,12-9.2,21.4-12.6,27.6c10.9,6.4,21.8,12.7,32.6,19.1
	c-0.5,13.7-1,27.4-1.5,41.1c32.7,0.3,65.4,0.6,98.1,0.9c0.5-16.9,1.1-33.8,1.6-50.7L573.1,243.8L573.1,243.8z"/>
<path class="st1" d="M563.2,294.1l2.2-50l-25.2-0.3c-0.5,16.9-1.1,33.8-1.6,50.7C546.8,294.4,555,294.2,563.2,294.1L563.2,294.1z"/>
<path class="st3" d="M445,203.9c-1,16.2-2,32.4-3,48.6"/>
<path class="st4" d="M428.5,81.1l-5-11.5l-10.1-19.2l5.4-3.4l-3.2-8.4L424,37v-6.8c7.7-3.7,19.1-8.3,33.3-11.7
	c13.9-3.3,21-5,30.6-3.5c22.6,3.5,35.4,21.1,37,23.2c3.1,4.4,11.8,16.7,9.6,32.3c-0.6,4.1-1.8,7.4-2.8,9.7l-17.6,19.5l-56.8-30.1
	L428.5,81.1L428.5,81.1z"/>
<path class="st1" d="M528.4,154.7c-1.5,2.2-3.7,5.4-6.4,9.2c-4.8,6.7-7.1,10-10.2,13.7c-5.2,6.3-8.3,9.8-13.6,12.8
	c-4.7,2.6-8.1,3.1-9.6,3.2c-2,0.2-6.5,0.5-10.5-1.9c-6.2-3.8-8.8-12.8-7.2-19.4c1-4.3,3-5.3,3.6-9.9c0.6-4-0.9-7.6-2.3-10
	c-6.9-2-11.8-5.1-14.7-7.2c-7.3-5.4-11.2-11.7-15-17.8c-3-4.9-4.6-7.4-6.1-11.6c-3.3-9.4-1.4-14.5-4.7-25.8c-1.1-3.9-2.4-7-3.3-9
	c1-17.3,6.6-22.3,10-24c3.6-1.8,5.1-0.2,24.7,0.6c7.6,0.3,10.1,0.2,16.8,0.8c6.2,0.5,11.3,1.3,14.8,1.8c1.1,1.7,2.7,4.3,4.1,7.7
	c1.8,4.5,1.4,5.5,2.7,8.7c2.5,5.6,5.6,5.9,8.8,10.9c1.6,2.5,3.4,6.3,3.8,12.2c0-1.2-0.3-15.8,8.4-20.3c0.8-0.4,3.7-1.9,6.6-0.9
	c4.4,1.5,6.7,7.8,5.8,12.6c-0.5,2.5-2.4,4.8-6.3,9.3c-4.8,5.6-5.2,4.8-6.8,7.3c-4.1,6.4-3.2,14-2.7,18.2c0.4,3.1,1.5,6.1,3.5,12
	C524.1,142.1,526.9,150.2,528.4,154.7L528.4,154.7z"/>
<circle class="st5" cx="445.7" cy="92.6" r="2.8"/>
<circle class="st5" cx="476.8" cy="93" r="2.8"/>
<line class="st3" x1="434.2" y1="80.6" x2="450.5" y2="83.1"/>
<line class="st3" x1="471.7" y1="77.3" x2="491.5" y2="76.7"/>
<path class="st3" d="M458.1,98.9c-1.6,2.8-3.2,6.4-4.4,10.8c-0.5,1.7-0.8,3.3-1,4.8c2.4,1.1,4.7,2.2,7.1,3.3"/>
<path class="st1" d="M482.4,122.1c-0.5,7.8-6.1,12.7-10.9,12.3c-4.3-0.4-6.8-5.1-7.1-5.6c2-0.4,4.1-0.8,6.4-1.5
	C475.4,125.8,479.3,123.9,482.4,122.1z"/>
<path class="st3" d="M504.1,133.6c-2,3.1-5.5,7.7-11.3,11.7c-8.3,5.8-16.7,6.9-20.6,7.2"/>
<text transform="matrix(1 0 0 1 208.13 108.58)" class="st0 st6 st7">Hob</text>
<text transform="matrix(1 0 0 1 321.07 108.58)" class="st0 st6 st7">b</text>
<text transform="matrix(1 0 0 1 355.34 108.58)" class="st0 st6 st7">y</text>
<text transform="matrix(1 0 0 1 188.68 155.27)" class="st0 st6 st7">Matcher</text>
<g>
	<path class="st1" d="M358.5,175.9l1.7,2.5l0.4,9.6c1.9,3.1,4.2,7.7,5.5,13.8c1.8,8.2,0.9,15.1,0,19.1l41.6,34
		c3.3-5.7,6.6-11.3,9.9-17c7.8,4.4,15.6,8.8,23.5,13.1c-4.9,8.7-10.1,14.9-13.9,18.9c-6.1,6.3-10.2,10.6-16.5,11
		c-5,0.3-9-2-11.3-3.6c-14.9-14.4-29.7-28.7-44.6-43.1c-1.9,0.2-3.6,0.2-5.2,0c-13.2-1.2-21.7-12-24.5-16
		c-0.5-9.1-1.1-18.3-1.6-27.4c-4.6-1.9-8.4-3.8-11.1-5.2c-4.4-2.3-5.9-3.4-6-5c-0.1-2,2.2-3.6,3.4-4.4l41.9,17.3
		c-0.2-0.9-2.3-10,3.3-15.3c0.5-0.4,0.9-0.8,0.9-0.8c0.8-0.6,1.6-1,2.3-1.3C358.2,176.1,358.4,176,358.5,175.9z"/>
	<path class="st1" d="M316.9,190.8c-2.4,1.3-3.6,4.3-2.8,6.9c1,2.8,4.3,4.7,8,4.4c6.1,0.1,10.7-1.7,11.1-3.9c0.6-3-6.8-6.1-7.5-6.4
		C322.9,190.6,319.7,189.3,316.9,190.8L316.9,190.8z"/>
	<path class="st1" d="M327.8,224c-3,1.1-7.6-1.7-7.4-4.9c0.2-2.4,2.9-4.8,5.9-4.6c2.5,0.2,4.1,2.3,4.4,4.2
		C331,220.8,329.9,223.3,327.8,224L327.8,224z"/>
	<path class="st1" d="M319.8,212.6c-2-0.4-4.5-1-5.2-2.9c-0.5-1.5,0.3-3.2,1.3-4.2c3.1-3.3,9.6-2.2,12.6-1.2c1.6,0.5,3.8,1.3,4.2,3
		c0.4,1.6-0.8,3.1-1,3.3C328.6,214.5,320.3,212.8,319.8,212.6L319.8,212.6z"/>
</g>
</svg>
