<?xml version="1.0" encoding="utf-8"?>
<!-- Generator: Adobe Illustrator 26.1.0, SVG Export Plug-In . SVG Version: 6.00 Build 0)  -->
<svg version="1.1" id="Layer_1" xmlns="http://www.w3.org/2000/svg" xmlns:xlink="http://www.w3.org/1999/xlink" x="0px" y="0px"
	 viewBox="0 0 512 512" style="enable-background:new 0 0 512 512;" xml:space="preserve">
<g>
	<path d="M159.2,317l13.6,27.1h0c2,4.3,5.6,7.6,10.1,9.2c4.5,1.6,9.4,1.3,13.6-0.8c4.2-2.1,7.4-5.8,8.9-10.4c1.4-4.5,1-9.4-1.2-13.6
		l-84.4-168.7c-2.1-4.1-6.3-6.7-10.9-6.7c-4.6,0-8.9,2.6-10.9,6.7L13.6,328.5c-2.1,4.1-2.4,8.9-1,13.3c1.4,4.4,4.6,8,8.7,10.1
		c4.2,2.1,9,2.4,13.4,0.9c4.4-1.5,8-4.6,10.1-8.8L58.4,317L159.2,317z M105.4,223c0.7-1.3,2.1-2,3.5-2s2.8,0.8,3.5,2l29.4,59H76
		L105.4,223z"/>
	<path d="M494,197.6c4.9-4.9,7.7-11.6,7.8-18.5c0-7-2.8-13.6-7.7-18.5c-4.9-4.9-11.6-7.6-18.6-7.6H356.7c-6.3,0-12,3.3-15.2,8.8
		c-3.1,5.4-3.1,12.1,0,17.5c3.1,5.4,8.9,8.8,15.2,8.8h89.4c1.3,0.1,2.5,0.9,3,2.1c0.5,1.2,0.3,2.6-0.6,3.6L341.6,300.5
		c-4.9,4.9-7.7,11.6-7.7,18.6c0,7,2.8,13.6,7.7,18.6c4.9,4.9,11.6,7.7,18.5,7.7H479c6.3,0,12-3.3,15.2-8.8c3.1-5.4,3.1-12.1,0-17.5
		c-3.1-5.4-8.9-8.8-15.2-8.8h-82.2c-2.7,0.1-5.1-1.6-6.1-4c-1-2.5-0.4-5.3,1.6-7.2L494,197.6z"/>
	<path d="M242,247c-6.3,0-12,3.3-15.2,8.8s-3.1,12.1,0,17.5s8.9,8.8,15.2,8.8h56c6.2,0,12-3.3,15.2-8.8c3.1-5.4,3.1-12.1,0-17.5
		c-3.1-5.4-8.9-8.8-15.2-8.8H242z"/>
	<path d="M429.5,91.8c3.5-3.5,5.4-8.3,5.1-13.2c-0.2-4.9-2.5-9.5-6.4-12.7C382.9,26.7,325.6,4.3,265.7,2.2
		C205.9,0.1,147.1,18.6,99.2,54.5V37c0-4.6-1.8-9.1-5.1-12.4s-7.7-5.1-12.4-5.1s-9.1,1.8-12.4,5.1s-5.1,7.7-5.1,12.4v76.5
		c0,3.7,2.2,7.1,5.6,8.5c3.4,1.4,7.4,0.6,10-2l9.6-9.8c39.5-41.5,92.7-67.3,149.8-72.6c30-2.2,60.1,1.5,88.7,11
		c28.5,9.5,54.9,24.6,77.6,44.3c3.4,2.9,7.7,4.4,12.2,4.2C422.1,96.8,426.3,95,429.5,91.8L429.5,91.8z"/>
	<path d="M431.7,394l-9.1,9.1c-39.3,40.1-91.6,64.9-147.5,70c-29.8,2.4-59.7-1.1-88.1-10.3c-28.4-9.2-54.7-24-77.4-43.4
		c-3.4-2.7-7.7-4.1-12-3.8c-4.3,0.3-8.4,2.1-11.5,5.2c-4.1,3.5-6.3,8.6-6.1,14c0.2,5.4,2.9,10.3,7.2,13.5
		c45.4,38.4,102.5,60.2,161.9,61.9c59.4,1.7,117.7-16.8,165.2-52.5v17.5c0,4.6,1.8,9.1,5.1,12.4c3.3,3.3,7.7,5.1,12.4,5.1
		s9.1-1.8,12.4-5.1s5.1-7.7,5.1-12.4l-1.9-73.9v0c0.4-3.9-1.6-7.6-5.2-9.2C438.6,390.4,434.4,391.2,431.7,394L431.7,394z"/>
</g>
</svg>
